<mxfile host="Electron" modified="2024-03-26T11:36:29.631Z" agent="Mozilla/5.0 (Windows NT 10.0; Win64; x64) AppleWebKit/537.36 (KHTML, like Gecko) draw.io/22.1.16 Chrome/120.0.6099.109 Electron/28.1.0 Safari/537.36" etag="pPoXL-7y7-ZXbdFa9Kft" version="22.1.16" type="device">
  <diagram id="C5RBs43oDa-KdzZeNtuy" name="Page-1">
    <mxGraphModel dx="2300" dy="887" grid="1" gridSize="10" guides="1" tooltips="1" connect="1" arrows="1" fold="1" page="0" pageScale="1" pageWidth="827" pageHeight="1169" math="0" shadow="0">
      <root>
        <mxCell id="WIyWlLk6GJQsqaUBKTNV-0" />
        <mxCell id="WIyWlLk6GJQsqaUBKTNV-1" parent="WIyWlLk6GJQsqaUBKTNV-0" />
        <mxCell id="IocTNjroUluIqf57pHVe-46" style="edgeStyle=orthogonalEdgeStyle;rounded=1;orthogonalLoop=1;jettySize=auto;html=1;exitX=0.5;exitY=1;exitDx=0;exitDy=0;entryX=0.5;entryY=0;entryDx=0;entryDy=0;endArrow=none;endFill=0;" parent="WIyWlLk6GJQsqaUBKTNV-1" edge="1">
          <mxGeometry relative="1" as="geometry">
            <mxPoint x="-140" y="572" as="targetPoint" />
            <mxPoint x="-140" y="507" as="sourcePoint" />
          </mxGeometry>
        </mxCell>
        <mxCell id="jSlZh_h7TQcM6uC7sidU-0" value="Manages" style="edgeLabel;resizable=0;html=1;align=right;verticalAlign=bottom;rotation=0;rounded=1;" parent="WIyWlLk6GJQsqaUBKTNV-1" connectable="0" vertex="1">
          <mxGeometry x="590.0003876436604" y="324.9977890663187" as="geometry">
            <mxPoint x="51" y="-6" as="offset" />
          </mxGeometry>
        </mxCell>
        <mxCell id="jSlZh_h7TQcM6uC7sidU-5" value="Makes" style="edgeLabel;resizable=0;html=1;align=right;verticalAlign=bottom;rotation=0;rounded=1;" parent="WIyWlLk6GJQsqaUBKTNV-1" connectable="0" vertex="1">
          <mxGeometry x="-19.99961235633964" y="324.9977890663187" as="geometry">
            <mxPoint x="51" y="-6" as="offset" />
          </mxGeometry>
        </mxCell>
        <mxCell id="jSlZh_h7TQcM6uC7sidU-7" value="*" style="edgeLabel;resizable=0;html=1;align=right;verticalAlign=bottom;rounded=1;" parent="WIyWlLk6GJQsqaUBKTNV-1" connectable="0" vertex="1">
          <mxGeometry x="514" y="305" as="geometry">
            <mxPoint x="29" y="16" as="offset" />
          </mxGeometry>
        </mxCell>
        <mxCell id="jSlZh_h7TQcM6uC7sidU-18" style="edgeStyle=orthogonalEdgeStyle;rounded=1;orthogonalLoop=1;jettySize=auto;html=1;exitX=0.5;exitY=0;exitDx=0;exitDy=0;endArrow=none;endFill=0;" parent="WIyWlLk6GJQsqaUBKTNV-1" edge="1">
          <mxGeometry relative="1" as="geometry">
            <mxPoint x="-140" y="345" as="targetPoint" />
            <Array as="points">
              <mxPoint x="-140" y="349" />
            </Array>
            <mxPoint x="-140" y="421" as="sourcePoint" />
          </mxGeometry>
        </mxCell>
        <mxCell id="UeBKWoU0LZNCBbVOsU7L-24" style="edgeStyle=orthogonalEdgeStyle;rounded=0;orthogonalLoop=1;jettySize=auto;html=1;exitX=0.5;exitY=0;exitDx=0;exitDy=0;entryX=0.5;entryY=1;entryDx=0;entryDy=0;endArrow=none;endFill=0;" parent="WIyWlLk6GJQsqaUBKTNV-1" source="jSlZh_h7TQcM6uC7sidU-40" target="jSlZh_h7TQcM6uC7sidU-41" edge="1">
          <mxGeometry relative="1" as="geometry" />
        </mxCell>
        <mxCell id="jSlZh_h7TQcM6uC7sidU-40" value="&lt;p style=&quot;margin: 4px 0px 0px; text-align: center;&quot;&gt;&lt;b style=&quot;&quot;&gt;Film&lt;/b&gt;&lt;/p&gt;&lt;hr&gt;&lt;p style=&quot;margin:0px;margin-left:8px;&quot;&gt;&lt;span style=&quot;background-color: initial;&quot;&gt;- Title&lt;/span&gt;&lt;br&gt;&lt;/p&gt;&lt;p style=&quot;margin:0px;margin-left:8px;&quot;&gt;- Rating&lt;/p&gt;&lt;p style=&quot;margin:0px;margin-left:8px;&quot;&gt;- Duration&lt;/p&gt;" style="verticalAlign=top;align=left;overflow=fill;fontSize=12;fontFamily=Helvetica;html=1;whiteSpace=wrap;rounded=0;" parent="WIyWlLk6GJQsqaUBKTNV-1" vertex="1">
          <mxGeometry x="370" y="445" width="160" height="90" as="geometry" />
        </mxCell>
        <mxCell id="UeBKWoU0LZNCBbVOsU7L-23" style="edgeStyle=orthogonalEdgeStyle;rounded=0;orthogonalLoop=1;jettySize=auto;html=1;exitX=1;exitY=0.5;exitDx=0;exitDy=0;entryX=0.5;entryY=0;entryDx=0;entryDy=0;endArrow=none;endFill=0;" parent="WIyWlLk6GJQsqaUBKTNV-1" source="jSlZh_h7TQcM6uC7sidU-41" target="jSlZh_h7TQcM6uC7sidU-52" edge="1">
          <mxGeometry relative="1" as="geometry" />
        </mxCell>
        <mxCell id="jSlZh_h7TQcM6uC7sidU-41" value="&lt;p style=&quot;margin: 4px 0px 0px; text-align: center;&quot;&gt;&lt;b&gt;Projection&lt;/b&gt;&lt;/p&gt;&lt;hr&gt;&lt;p style=&quot;margin:0px;margin-left:8px;&quot;&gt;&lt;span style=&quot;background-color: initial;&quot;&gt;- DateTime&lt;/span&gt;&lt;br&gt;&lt;/p&gt;&lt;p style=&quot;margin:0px;margin-left:8px;&quot;&gt;&lt;span style=&quot;background-color: initial;&quot;&gt;- Seats&lt;/span&gt;&lt;/p&gt;" style="verticalAlign=top;align=left;overflow=fill;fontSize=12;fontFamily=Helvetica;html=1;whiteSpace=wrap;rounded=0;" parent="WIyWlLk6GJQsqaUBKTNV-1" vertex="1">
          <mxGeometry x="370" y="280" width="160" height="90" as="geometry" />
        </mxCell>
        <mxCell id="V83B1hpmwvqZw-QPlUn4-34" style="edgeStyle=orthogonalEdgeStyle;rounded=1;orthogonalLoop=1;jettySize=auto;html=1;exitX=1;exitY=0.5;exitDx=0;exitDy=0;entryX=0;entryY=0.5;entryDx=0;entryDy=0;endArrow=none;endFill=0;" parent="WIyWlLk6GJQsqaUBKTNV-1" source="jSlZh_h7TQcM6uC7sidU-42" target="jSlZh_h7TQcM6uC7sidU-46" edge="1">
          <mxGeometry relative="1" as="geometry" />
        </mxCell>
        <mxCell id="UeBKWoU0LZNCBbVOsU7L-1" style="edgeStyle=orthogonalEdgeStyle;rounded=0;orthogonalLoop=1;jettySize=auto;html=1;exitX=1;exitY=0.75;exitDx=0;exitDy=0;entryX=0;entryY=0.5;entryDx=0;entryDy=0;endArrow=none;endFill=0;" parent="WIyWlLk6GJQsqaUBKTNV-1" source="jSlZh_h7TQcM6uC7sidU-42" target="UeBKWoU0LZNCBbVOsU7L-0" edge="1">
          <mxGeometry relative="1" as="geometry" />
        </mxCell>
        <mxCell id="jSlZh_h7TQcM6uC7sidU-42" value="&lt;p style=&quot;margin: 4px 0px 0px; text-align: center;&quot;&gt;&lt;b&gt;Cinema&lt;/b&gt;&lt;/p&gt;&lt;hr&gt;&lt;p style=&quot;margin:0px;margin-left:8px;&quot;&gt;- Name&lt;/p&gt;" style="verticalAlign=top;align=left;overflow=fill;fontSize=12;fontFamily=Helvetica;html=1;whiteSpace=wrap;rounded=0;fillColor=#FFFFFF;fontColor=#333333;strokeColor=#000000;" parent="WIyWlLk6GJQsqaUBKTNV-1" vertex="1">
          <mxGeometry x="-220" y="280" width="160" height="90" as="geometry" />
        </mxCell>
        <mxCell id="jSlZh_h7TQcM6uC7sidU-56" style="edgeStyle=orthogonalEdgeStyle;rounded=1;orthogonalLoop=1;jettySize=auto;html=1;exitX=1;exitY=0.5;exitDx=0;exitDy=0;entryX=0;entryY=0.5;entryDx=0;entryDy=0;endArrow=none;endFill=0;" parent="WIyWlLk6GJQsqaUBKTNV-1" source="jSlZh_h7TQcM6uC7sidU-46" target="jSlZh_h7TQcM6uC7sidU-41" edge="1">
          <mxGeometry relative="1" as="geometry" />
        </mxCell>
        <mxCell id="jSlZh_h7TQcM6uC7sidU-46" value="&lt;p style=&quot;margin: 4px 0px 0px; text-align: center;&quot;&gt;&lt;b&gt;&lt;font face=&quot;Helvetica&quot;&gt;CinemaRoom&lt;/font&gt;&lt;/b&gt;&lt;/p&gt;&lt;hr&gt;&lt;p style=&quot;margin:0px;margin-left:8px;&quot;&gt;&lt;font face=&quot;Helvetica&quot;&gt;- RoomNumber&lt;/font&gt;&lt;/p&gt;&lt;p style=&quot;margin:0px;margin-left:8px;&quot;&gt;&lt;font face=&quot;Helvetica&quot;&gt;- TotalSeats&lt;/font&gt;&lt;/p&gt;&lt;p style=&quot;margin:0px;margin-left:8px;&quot;&gt;&lt;font face=&quot;Helvetica&quot;&gt;- Film&lt;/font&gt;&lt;/p&gt;&lt;p style=&quot;margin:0px;margin-left:8px;&quot;&gt;&lt;br&gt;&lt;/p&gt;" style="verticalAlign=top;align=left;overflow=fill;fontSize=12;fontFamily=Georgia;html=1;whiteSpace=wrap;rounded=0;" parent="WIyWlLk6GJQsqaUBKTNV-1" vertex="1">
          <mxGeometry x="80" y="280" width="160" height="90" as="geometry" />
        </mxCell>
        <mxCell id="jSlZh_h7TQcM6uC7sidU-49" value="1" style="edgeLabel;resizable=0;html=1;align=right;verticalAlign=bottom;rounded=1;" parent="WIyWlLk6GJQsqaUBKTNV-1" connectable="0" vertex="1">
          <mxGeometry x="-89.99961235633964" y="324.9977890663187" as="geometry">
            <mxPoint x="51" y="-6" as="offset" />
          </mxGeometry>
        </mxCell>
        <mxCell id="jSlZh_h7TQcM6uC7sidU-50" value="*" style="edgeLabel;resizable=0;html=1;align=right;verticalAlign=bottom;rounded=1;" parent="WIyWlLk6GJQsqaUBKTNV-1" connectable="0" vertex="1">
          <mxGeometry x="40" y="305" as="geometry">
            <mxPoint x="29" y="16" as="offset" />
          </mxGeometry>
        </mxCell>
        <mxCell id="jSlZh_h7TQcM6uC7sidU-52" value="&lt;p style=&quot;margin: 4px 0px 0px; text-align: center;&quot;&gt;&lt;b&gt;Admin&lt;/b&gt;&lt;/p&gt;&lt;hr&gt;&lt;p style=&quot;margin:0px;margin-left:8px;&quot;&gt;&lt;br&gt;&lt;/p&gt;" style="verticalAlign=top;align=left;overflow=fill;fontSize=12;fontFamily=Helvetica;html=1;whiteSpace=wrap;rounded=0;" parent="WIyWlLk6GJQsqaUBKTNV-1" vertex="1">
          <mxGeometry x="590" y="345" width="160" height="90" as="geometry" />
        </mxCell>
        <mxCell id="jSlZh_h7TQcM6uC7sidU-54" value="1" style="edgeLabel;resizable=0;html=1;align=right;verticalAlign=bottom;rounded=1;" parent="WIyWlLk6GJQsqaUBKTNV-1" connectable="0" vertex="1">
          <mxGeometry x="640.0003876436604" y="344.9977890663187" as="geometry">
            <mxPoint x="51" y="-6" as="offset" />
          </mxGeometry>
        </mxCell>
        <mxCell id="jSlZh_h7TQcM6uC7sidU-67" value="1" style="edgeLabel;resizable=0;html=1;align=right;verticalAlign=bottom;rounded=1;" parent="WIyWlLk6GJQsqaUBKTNV-1" connectable="0" vertex="1">
          <mxGeometry x="210.00038764366036" y="324.9977890663187" as="geometry">
            <mxPoint x="51" y="-6" as="offset" />
          </mxGeometry>
        </mxCell>
        <mxCell id="jSlZh_h7TQcM6uC7sidU-68" value="*" style="edgeLabel;resizable=0;html=1;align=right;verticalAlign=bottom;rounded=1;" parent="WIyWlLk6GJQsqaUBKTNV-1" connectable="0" vertex="1">
          <mxGeometry x="330" y="305" as="geometry">
            <mxPoint x="29" y="16" as="offset" />
          </mxGeometry>
        </mxCell>
        <mxCell id="V83B1hpmwvqZw-QPlUn4-1" value="1" style="edgeLabel;resizable=0;html=1;align=right;verticalAlign=bottom;rounded=1;" parent="WIyWlLk6GJQsqaUBKTNV-1" connectable="0" vertex="1">
          <mxGeometry x="-99.99961235633964" y="354.9977890663187" as="geometry">
            <mxPoint x="51" y="-6" as="offset" />
          </mxGeometry>
        </mxCell>
        <mxCell id="V83B1hpmwvqZw-QPlUn4-3" value="*" style="edgeLabel;resizable=0;html=1;align=right;verticalAlign=bottom;rounded=1;" parent="WIyWlLk6GJQsqaUBKTNV-1" connectable="0" vertex="1">
          <mxGeometry x="330" y="475" as="geometry">
            <mxPoint x="29" y="16" as="offset" />
          </mxGeometry>
        </mxCell>
        <mxCell id="V83B1hpmwvqZw-QPlUn4-36" style="edgeStyle=orthogonalEdgeStyle;rounded=1;orthogonalLoop=1;jettySize=auto;html=1;exitX=1;exitY=0.5;exitDx=0;exitDy=0;entryX=0;entryY=0.5;entryDx=0;entryDy=0;endArrow=none;endFill=0;" parent="WIyWlLk6GJQsqaUBKTNV-1" source="V83B1hpmwvqZw-QPlUn4-8" target="V83B1hpmwvqZw-QPlUn4-35" edge="1">
          <mxGeometry relative="1" as="geometry" />
        </mxCell>
        <mxCell id="V83B1hpmwvqZw-QPlUn4-8" value="&lt;p style=&quot;margin: 4px 0px 0px; text-align: center;&quot;&gt;&lt;b&gt;SaleProcess&lt;/b&gt;&lt;/p&gt;&lt;hr&gt;&lt;p style=&quot;margin:0px;margin-left:8px;&quot;&gt;- Projection&lt;/p&gt;&lt;p style=&quot;margin:0px;margin-left:8px;&quot;&gt;- SeatsNumber&lt;/p&gt;" style="verticalAlign=top;align=left;overflow=fill;fontSize=12;fontFamily=Helvetica;html=1;whiteSpace=wrap;rounded=0;" parent="WIyWlLk6GJQsqaUBKTNV-1" vertex="1">
          <mxGeometry x="-220" y="570" width="160" height="90" as="geometry" />
        </mxCell>
        <mxCell id="V83B1hpmwvqZw-QPlUn4-24" style="edgeStyle=orthogonalEdgeStyle;rounded=1;orthogonalLoop=1;jettySize=auto;html=1;exitX=1;exitY=0.5;exitDx=0;exitDy=0;entryX=0;entryY=0.5;entryDx=0;entryDy=0;endArrow=none;endFill=0;" parent="WIyWlLk6GJQsqaUBKTNV-1" source="V83B1hpmwvqZw-QPlUn4-13" target="V83B1hpmwvqZw-QPlUn4-8" edge="1">
          <mxGeometry relative="1" as="geometry" />
        </mxCell>
        <mxCell id="V83B1hpmwvqZw-QPlUn4-41" style="edgeStyle=orthogonalEdgeStyle;rounded=1;orthogonalLoop=1;jettySize=auto;html=1;exitX=0;exitY=0.5;exitDx=0;exitDy=0;entryX=0.5;entryY=1;entryDx=0;entryDy=0;endArrow=none;endFill=0;" parent="WIyWlLk6GJQsqaUBKTNV-1" source="V83B1hpmwvqZw-QPlUn4-13" target="V83B1hpmwvqZw-QPlUn4-35" edge="1">
          <mxGeometry relative="1" as="geometry">
            <Array as="points">
              <mxPoint x="-530" y="615" />
              <mxPoint x="-530" y="805" />
              <mxPoint x="130" y="805" />
            </Array>
          </mxGeometry>
        </mxCell>
        <mxCell id="V83B1hpmwvqZw-QPlUn4-13" value="&lt;p style=&quot;margin: 4px 0px 0px; text-align: center;&quot;&gt;&lt;b&gt;Costumer&lt;/b&gt;&lt;/p&gt;&lt;hr&gt;&lt;p style=&quot;margin:0px;margin-left:8px;&quot;&gt;- Email&lt;/p&gt;&lt;p style=&quot;margin:0px;margin-left:8px;&quot;&gt;- Credentials&lt;/p&gt;" style="verticalAlign=top;align=left;overflow=fill;fontSize=12;fontFamily=Helvetica;html=1;whiteSpace=wrap;rounded=0;" parent="WIyWlLk6GJQsqaUBKTNV-1" vertex="1">
          <mxGeometry x="-510" y="570" width="160" height="90" as="geometry" />
        </mxCell>
        <mxCell id="V83B1hpmwvqZw-QPlUn4-15" value="1" style="edgeLabel;resizable=0;html=1;align=right;verticalAlign=bottom;rounded=1;" parent="WIyWlLk6GJQsqaUBKTNV-1" connectable="0" vertex="1">
          <mxGeometry x="-389.99961235633964" y="614.9977890663188" as="geometry">
            <mxPoint x="51" y="-6" as="offset" />
          </mxGeometry>
        </mxCell>
        <mxCell id="V83B1hpmwvqZw-QPlUn4-16" value="1" style="edgeLabel;resizable=0;html=1;align=right;verticalAlign=bottom;rounded=1;" parent="WIyWlLk6GJQsqaUBKTNV-1" connectable="0" vertex="1">
          <mxGeometry x="-279.99961235633964" y="614.9977890663188" as="geometry">
            <mxPoint x="51" y="-6" as="offset" />
          </mxGeometry>
        </mxCell>
        <mxCell id="V83B1hpmwvqZw-QPlUn4-17" value="Request" style="edgeLabel;resizable=0;html=1;align=right;verticalAlign=bottom;rotation=0;rounded=1;" parent="WIyWlLk6GJQsqaUBKTNV-1" connectable="0" vertex="1">
          <mxGeometry x="-319.99961235633964" y="614.9977890663188" as="geometry">
            <mxPoint x="51" y="-6" as="offset" />
          </mxGeometry>
        </mxCell>
        <mxCell id="V83B1hpmwvqZw-QPlUn4-27" style="edgeStyle=orthogonalEdgeStyle;rounded=1;orthogonalLoop=1;jettySize=auto;html=1;exitX=1;exitY=0.5;exitDx=0;exitDy=0;entryX=0;entryY=0.75;entryDx=0;entryDy=0;endArrow=none;endFill=0;" parent="WIyWlLk6GJQsqaUBKTNV-1" source="V83B1hpmwvqZw-QPlUn4-25" target="V83B1hpmwvqZw-QPlUn4-8" edge="1">
          <mxGeometry relative="1" as="geometry" />
        </mxCell>
        <mxCell id="V83B1hpmwvqZw-QPlUn4-25" value="&lt;p style=&quot;margin: 4px 0px 0px; text-align: center;&quot;&gt;&lt;b&gt;Cashier&lt;/b&gt;&lt;/p&gt;&lt;hr&gt;&lt;p style=&quot;margin:0px;margin-left:8px;&quot;&gt;- Id&lt;/p&gt;" style="verticalAlign=top;align=left;overflow=fill;fontSize=12;fontFamily=Helvetica;html=1;whiteSpace=wrap;rounded=0;" parent="WIyWlLk6GJQsqaUBKTNV-1" vertex="1">
          <mxGeometry x="-510" y="685" width="160" height="90" as="geometry" />
        </mxCell>
        <mxCell id="V83B1hpmwvqZw-QPlUn4-28" value="Request" style="edgeLabel;resizable=0;html=1;align=right;verticalAlign=bottom;rotation=0;rounded=1;" parent="WIyWlLk6GJQsqaUBKTNV-1" connectable="0" vertex="1">
          <mxGeometry x="-289.99961235633964" y="704.9977890663188" as="geometry">
            <mxPoint x="51" y="-6" as="offset" />
          </mxGeometry>
        </mxCell>
        <mxCell id="V83B1hpmwvqZw-QPlUn4-29" value="1" style="edgeLabel;resizable=0;html=1;align=right;verticalAlign=bottom;rounded=1;" parent="WIyWlLk6GJQsqaUBKTNV-1" connectable="0" vertex="1">
          <mxGeometry x="-389.99961235633964" y="734.9977890663188" as="geometry">
            <mxPoint x="51" y="-6" as="offset" />
          </mxGeometry>
        </mxCell>
        <mxCell id="V83B1hpmwvqZw-QPlUn4-33" value="1" style="edgeLabel;resizable=0;html=1;align=right;verticalAlign=bottom;rounded=1;" parent="WIyWlLk6GJQsqaUBKTNV-1" connectable="0" vertex="1">
          <mxGeometry x="-279.99961235633964" y="664.9977890663188" as="geometry">
            <mxPoint x="51" y="-6" as="offset" />
          </mxGeometry>
        </mxCell>
        <mxCell id="V83B1hpmwvqZw-QPlUn4-35" value="&lt;p style=&quot;margin: 4px 0px 0px; text-align: center;&quot;&gt;&lt;b&gt;Item&lt;/b&gt;&lt;/p&gt;&lt;hr&gt;&lt;p style=&quot;margin:0px;margin-left:8px;&quot;&gt;&lt;span style=&quot;background-color: initial;&quot;&gt;- Ticket&lt;/span&gt;&lt;br&gt;&lt;/p&gt;&lt;p style=&quot;margin:0px;margin-left:8px;&quot;&gt;- Food&lt;/p&gt;" style="verticalAlign=top;align=left;overflow=fill;fontSize=12;fontFamily=Helvetica;html=1;whiteSpace=wrap;rounded=0;" parent="WIyWlLk6GJQsqaUBKTNV-1" vertex="1">
          <mxGeometry x="50" y="570" width="160" height="90" as="geometry" />
        </mxCell>
        <mxCell id="V83B1hpmwvqZw-QPlUn4-37" value="1" style="edgeLabel;resizable=0;html=1;align=right;verticalAlign=bottom;rounded=1;" parent="WIyWlLk6GJQsqaUBKTNV-1" connectable="0" vertex="1">
          <mxGeometry x="-99.99961235633964" y="614.9977890663188" as="geometry">
            <mxPoint x="51" y="-6" as="offset" />
          </mxGeometry>
        </mxCell>
        <mxCell id="V83B1hpmwvqZw-QPlUn4-38" value="1" style="edgeLabel;resizable=0;html=1;align=right;verticalAlign=bottom;rounded=1;" parent="WIyWlLk6GJQsqaUBKTNV-1" connectable="0" vertex="1">
          <mxGeometry x="-9.99961235633964" y="614.9977890663188" as="geometry">
            <mxPoint x="51" y="-6" as="offset" />
          </mxGeometry>
        </mxCell>
        <mxCell id="V83B1hpmwvqZw-QPlUn4-39" value="Generates" style="edgeLabel;resizable=0;html=1;align=right;verticalAlign=bottom;rotation=0;rounded=1;" parent="WIyWlLk6GJQsqaUBKTNV-1" connectable="0" vertex="1">
          <mxGeometry x="-39.99961235633964" y="614.9977890663188" as="geometry">
            <mxPoint x="51" y="-6" as="offset" />
          </mxGeometry>
        </mxCell>
        <mxCell id="V83B1hpmwvqZw-QPlUn4-42" value="Gets" style="edgeLabel;resizable=0;html=1;align=right;verticalAlign=bottom;rotation=0;rounded=1;" parent="WIyWlLk6GJQsqaUBKTNV-1" connectable="0" vertex="1">
          <mxGeometry x="-219.99961235633964" y="804.9977890663188" as="geometry">
            <mxPoint x="51" y="-6" as="offset" />
          </mxGeometry>
        </mxCell>
        <mxCell id="V83B1hpmwvqZw-QPlUn4-43" value="1" style="edgeLabel;resizable=0;html=1;align=right;verticalAlign=bottom;rounded=1;" parent="WIyWlLk6GJQsqaUBKTNV-1" connectable="0" vertex="1">
          <mxGeometry x="-569.9996123563396" y="614.9977890663188" as="geometry">
            <mxPoint x="51" y="-6" as="offset" />
          </mxGeometry>
        </mxCell>
        <mxCell id="V83B1hpmwvqZw-QPlUn4-44" value="1" style="edgeLabel;resizable=0;html=1;align=right;verticalAlign=bottom;rounded=1;" parent="WIyWlLk6GJQsqaUBKTNV-1" connectable="0" vertex="1">
          <mxGeometry x="70.00038764366036" y="684.9977890663188" as="geometry">
            <mxPoint x="51" y="-6" as="offset" />
          </mxGeometry>
        </mxCell>
        <mxCell id="V83B1hpmwvqZw-QPlUn4-45" value="Record" style="edgeLabel;resizable=0;html=1;align=right;verticalAlign=bottom;rotation=0;rounded=1;" parent="WIyWlLk6GJQsqaUBKTNV-1" connectable="0" vertex="1">
          <mxGeometry x="-139.99961235633964" y="554.9977890663188" as="geometry">
            <mxPoint x="51" y="-6" as="offset" />
          </mxGeometry>
        </mxCell>
        <mxCell id="V83B1hpmwvqZw-QPlUn4-46" value="Has" style="edgeLabel;resizable=0;html=1;align=right;verticalAlign=bottom;rotation=0;rounded=1;" parent="WIyWlLk6GJQsqaUBKTNV-1" connectable="0" vertex="1">
          <mxGeometry x="-159.99961235633964" y="404.9977890663188" as="geometry">
            <mxPoint x="51" y="-6" as="offset" />
          </mxGeometry>
        </mxCell>
        <mxCell id="V83B1hpmwvqZw-QPlUn4-47" value="1" style="edgeLabel;resizable=0;html=1;align=right;verticalAlign=bottom;rounded=1;" parent="WIyWlLk6GJQsqaUBKTNV-1" connectable="0" vertex="1">
          <mxGeometry x="-199.99961235633964" y="394.9977890663187" as="geometry">
            <mxPoint x="51" y="-6" as="offset" />
          </mxGeometry>
        </mxCell>
        <mxCell id="V83B1hpmwvqZw-QPlUn4-48" value="1" style="edgeLabel;resizable=0;html=1;align=right;verticalAlign=bottom;rounded=1;" parent="WIyWlLk6GJQsqaUBKTNV-1" connectable="0" vertex="1">
          <mxGeometry x="-199.99961235633964" y="420.9977890663187" as="geometry">
            <mxPoint x="51" y="-6" as="offset" />
          </mxGeometry>
        </mxCell>
        <mxCell id="V83B1hpmwvqZw-QPlUn4-49" value="1" style="edgeLabel;resizable=0;html=1;align=right;verticalAlign=bottom;rounded=1;" parent="WIyWlLk6GJQsqaUBKTNV-1" connectable="0" vertex="1">
          <mxGeometry x="-199.99961235633964" y="534.9977890663188" as="geometry">
            <mxPoint x="51" y="-6" as="offset" />
          </mxGeometry>
        </mxCell>
        <mxCell id="V83B1hpmwvqZw-QPlUn4-51" value="*" style="edgeLabel;resizable=0;html=1;align=right;verticalAlign=bottom;rounded=1;" parent="WIyWlLk6GJQsqaUBKTNV-1" connectable="0" vertex="1">
          <mxGeometry x="-180" y="555" as="geometry">
            <mxPoint x="29" y="16" as="offset" />
          </mxGeometry>
        </mxCell>
        <mxCell id="6il7nf0VTJw9nePaGG9p-1" value="&lt;p style=&quot;margin: 4px 0px 0px; text-align: center;&quot;&gt;&lt;b&gt;Register&lt;/b&gt;&lt;/p&gt;&lt;hr&gt;&lt;p style=&quot;margin:0px;margin-left:8px;&quot;&gt;&lt;br&gt;&lt;/p&gt;" style="verticalAlign=top;align=left;overflow=fill;fontSize=12;fontFamily=Helvetica;html=1;whiteSpace=wrap;rounded=0;" parent="WIyWlLk6GJQsqaUBKTNV-1" vertex="1">
          <mxGeometry x="-220" y="421" width="160" height="90" as="geometry" />
        </mxCell>
        <mxCell id="02Swsco6-otCZ8Av2tFa-1" value="Composed by" style="edgeLabel;resizable=0;html=1;align=right;verticalAlign=bottom;rotation=0;rounded=1;" parent="WIyWlLk6GJQsqaUBKTNV-1" connectable="0" vertex="1">
          <mxGeometry x="300.00038764366036" y="454.9977890663188" as="geometry">
            <mxPoint x="51" y="-6" as="offset" />
          </mxGeometry>
        </mxCell>
        <mxCell id="02Swsco6-otCZ8Av2tFa-2" value="Composed of" style="edgeLabel;resizable=0;html=1;align=right;verticalAlign=bottom;rotation=0;rounded=1;" parent="WIyWlLk6GJQsqaUBKTNV-1" connectable="0" vertex="1">
          <mxGeometry x="280.00038764366036" y="314.9977890663188" as="geometry">
            <mxPoint x="51" y="-6" as="offset" />
          </mxGeometry>
        </mxCell>
        <mxCell id="UeBKWoU0LZNCBbVOsU7L-4" style="edgeStyle=orthogonalEdgeStyle;rounded=0;orthogonalLoop=1;jettySize=auto;html=1;exitX=1;exitY=0.5;exitDx=0;exitDy=0;entryX=0;entryY=0.5;entryDx=0;entryDy=0;endArrow=none;endFill=0;" parent="WIyWlLk6GJQsqaUBKTNV-1" source="UeBKWoU0LZNCBbVOsU7L-0" target="jSlZh_h7TQcM6uC7sidU-40" edge="1">
          <mxGeometry relative="1" as="geometry" />
        </mxCell>
        <mxCell id="UeBKWoU0LZNCBbVOsU7L-0" value="&lt;p style=&quot;margin: 4px 0px 0px; text-align: center;&quot;&gt;&lt;b&gt;FilmCatalogue&lt;/b&gt;&lt;/p&gt;&lt;hr&gt;&lt;p style=&quot;margin:0px;margin-left:8px;&quot;&gt;&lt;br&gt;&lt;/p&gt;" style="verticalAlign=top;align=left;overflow=fill;fontSize=12;fontFamily=Helvetica;html=1;whiteSpace=wrap;rounded=0;" parent="WIyWlLk6GJQsqaUBKTNV-1" vertex="1">
          <mxGeometry x="80" y="405" width="160" height="90" as="geometry" />
        </mxCell>
        <mxCell id="UeBKWoU0LZNCBbVOsU7L-2" value="Has" style="edgeLabel;resizable=0;html=1;align=right;verticalAlign=bottom;rotation=0;rounded=1;" parent="WIyWlLk6GJQsqaUBKTNV-1" connectable="0" vertex="1">
          <mxGeometry x="-9.99961235633964" y="404.9977890663188" as="geometry">
            <mxPoint x="51" y="-6" as="offset" />
          </mxGeometry>
        </mxCell>
        <mxCell id="UeBKWoU0LZNCBbVOsU7L-3" value="1" style="edgeLabel;resizable=0;html=1;align=right;verticalAlign=bottom;rounded=1;" parent="WIyWlLk6GJQsqaUBKTNV-1" connectable="0" vertex="1">
          <mxGeometry x="20.00038764366036" y="454.9977890663187" as="geometry">
            <mxPoint x="51" y="-6" as="offset" />
          </mxGeometry>
        </mxCell>
        <mxCell id="UeBKWoU0LZNCBbVOsU7L-8" value="1" style="edgeLabel;resizable=0;html=1;align=right;verticalAlign=bottom;rounded=1;" parent="WIyWlLk6GJQsqaUBKTNV-1" connectable="0" vertex="1">
          <mxGeometry x="210.00038764366036" y="454.9977890663187" as="geometry">
            <mxPoint x="51" y="-6" as="offset" />
          </mxGeometry>
        </mxCell>
        <mxCell id="UeBKWoU0LZNCBbVOsU7L-15" value="" style="endArrow=none;html=1;rounded=0;endFill=0;exitX=0.25;exitY=0;exitDx=0;exitDy=0;" parent="WIyWlLk6GJQsqaUBKTNV-1" source="V83B1hpmwvqZw-QPlUn4-35" edge="1">
          <mxGeometry width="50" height="50" relative="1" as="geometry">
            <mxPoint x="80" y="566" as="sourcePoint" />
            <mxPoint x="-60" y="365" as="targetPoint" />
            <Array as="points" />
          </mxGeometry>
        </mxCell>
        <mxCell id="UeBKWoU0LZNCBbVOsU7L-16" value="1" style="edgeLabel;resizable=0;html=1;align=right;verticalAlign=bottom;rounded=1;" parent="WIyWlLk6GJQsqaUBKTNV-1" connectable="0" vertex="1">
          <mxGeometry x="-109.99961235633964" y="394.9977890663187" as="geometry">
            <mxPoint x="51" y="-6" as="offset" />
          </mxGeometry>
        </mxCell>
        <mxCell id="UeBKWoU0LZNCBbVOsU7L-20" value="*" style="edgeLabel;resizable=0;html=1;align=right;verticalAlign=bottom;rounded=1;" parent="WIyWlLk6GJQsqaUBKTNV-1" connectable="0" vertex="1">
          <mxGeometry x="70" y="555" as="geometry">
            <mxPoint x="29" y="16" as="offset" />
          </mxGeometry>
        </mxCell>
        <mxCell id="UeBKWoU0LZNCBbVOsU7L-21" value="Gets" style="edgeLabel;resizable=0;html=1;align=right;verticalAlign=bottom;rotation=0;rounded=1;" parent="WIyWlLk6GJQsqaUBKTNV-1" connectable="0" vertex="1">
          <mxGeometry x="-29.99961235633964" y="510.9977890663188" as="geometry">
            <mxPoint x="51" y="-6" as="offset" />
          </mxGeometry>
        </mxCell>
        <mxCell id="UeBKWoU0LZNCBbVOsU7L-25" value="1" style="edgeLabel;resizable=0;html=1;align=right;verticalAlign=bottom;rounded=1;" parent="WIyWlLk6GJQsqaUBKTNV-1" connectable="0" vertex="1">
          <mxGeometry x="410.00038764366036" y="449.9977890663187" as="geometry">
            <mxPoint x="51" y="-6" as="offset" />
          </mxGeometry>
        </mxCell>
        <mxCell id="UeBKWoU0LZNCBbVOsU7L-28" value="*" style="edgeLabel;resizable=0;html=1;align=right;verticalAlign=bottom;rounded=1;" parent="WIyWlLk6GJQsqaUBKTNV-1" connectable="0" vertex="1">
          <mxGeometry x="430" y="375" as="geometry">
            <mxPoint x="29" y="16" as="offset" />
          </mxGeometry>
        </mxCell>
        <mxCell id="X7CobdFkB-S093FQ_3rh-1" style="edgeStyle=orthogonalEdgeStyle;rounded=0;orthogonalLoop=1;jettySize=auto;html=1;exitX=0.75;exitY=1;exitDx=0;exitDy=0;entryX=0.565;entryY=1.011;entryDx=0;entryDy=0;entryPerimeter=0;endArrow=none;endFill=0;" parent="WIyWlLk6GJQsqaUBKTNV-1" source="UeBKWoU0LZNCBbVOsU7L-0" target="jSlZh_h7TQcM6uC7sidU-52" edge="1">
          <mxGeometry relative="1" as="geometry">
            <Array as="points">
              <mxPoint x="200" y="555" />
              <mxPoint x="680" y="555" />
            </Array>
          </mxGeometry>
        </mxCell>
        <mxCell id="X7CobdFkB-S093FQ_3rh-2" value="&lt;span style=&quot;color: rgb(0, 0, 0); font-family: Helvetica; font-size: 11px; font-style: normal; font-variant-ligatures: normal; font-variant-caps: normal; font-weight: 400; letter-spacing: normal; orphans: 2; text-align: right; text-indent: 0px; text-transform: none; widows: 2; word-spacing: 0px; -webkit-text-stroke-width: 0px; background-color: rgb(255, 255, 255); text-decoration-thickness: initial; text-decoration-style: initial; text-decoration-color: initial; float: none; display: inline !important;&quot;&gt;1&lt;/span&gt;" style="text;whiteSpace=wrap;html=1;" parent="WIyWlLk6GJQsqaUBKTNV-1" vertex="1">
          <mxGeometry x="690" y="430" width="40" height="40" as="geometry" />
        </mxCell>
        <mxCell id="X7CobdFkB-S093FQ_3rh-3" value="Manages" style="edgeLabel;resizable=0;html=1;align=right;verticalAlign=bottom;rotation=0;rounded=1;" parent="WIyWlLk6GJQsqaUBKTNV-1" connectable="0" vertex="1">
          <mxGeometry x="450.00038764366036" y="584.9977890663188" as="geometry">
            <mxPoint x="51" y="-6" as="offset" />
          </mxGeometry>
        </mxCell>
        <mxCell id="X7CobdFkB-S093FQ_3rh-4" value="&lt;span style=&quot;color: rgb(0, 0, 0); font-family: Helvetica; font-size: 11px; font-style: normal; font-variant-ligatures: normal; font-variant-caps: normal; font-weight: 400; letter-spacing: normal; orphans: 2; text-align: right; text-indent: 0px; text-transform: none; widows: 2; word-spacing: 0px; -webkit-text-stroke-width: 0px; background-color: rgb(255, 255, 255); text-decoration-thickness: initial; text-decoration-style: initial; text-decoration-color: initial; float: none; display: inline !important;&quot;&gt;1&lt;/span&gt;" style="text;whiteSpace=wrap;html=1;" parent="WIyWlLk6GJQsqaUBKTNV-1" vertex="1">
          <mxGeometry x="200" y="491" width="40" height="40" as="geometry" />
        </mxCell>
        <mxCell id="X7CobdFkB-S093FQ_3rh-5" value="Is characterized" style="edgeLabel;resizable=0;html=1;align=right;verticalAlign=bottom;rotation=0;rounded=1;" parent="WIyWlLk6GJQsqaUBKTNV-1" connectable="0" vertex="1">
          <mxGeometry x="490.00038764366036" y="420.9977890663187" as="geometry">
            <mxPoint x="51" y="-6" as="offset" />
          </mxGeometry>
        </mxCell>
        <mxCell id="V-8IQIEskmgq7ARkN5S_-1" style="edgeStyle=orthogonalEdgeStyle;rounded=0;orthogonalLoop=1;jettySize=auto;html=1;exitX=1;exitY=0.5;exitDx=0;exitDy=0;entryX=0.5;entryY=0;entryDx=0;entryDy=0;endArrow=none;endFill=0;" edge="1" parent="WIyWlLk6GJQsqaUBKTNV-1" source="V-8IQIEskmgq7ARkN5S_-0" target="V83B1hpmwvqZw-QPlUn4-13">
          <mxGeometry relative="1" as="geometry" />
        </mxCell>
        <mxCell id="V-8IQIEskmgq7ARkN5S_-2" style="edgeStyle=orthogonalEdgeStyle;rounded=0;orthogonalLoop=1;jettySize=auto;html=1;exitX=1;exitY=0.5;exitDx=0;exitDy=0;entryX=0.5;entryY=1;entryDx=0;entryDy=0;endArrow=none;endFill=0;" edge="1" parent="WIyWlLk6GJQsqaUBKTNV-1" source="V-8IQIEskmgq7ARkN5S_-0" target="V83B1hpmwvqZw-QPlUn4-25">
          <mxGeometry relative="1" as="geometry">
            <Array as="points">
              <mxPoint x="-550" y="685" />
              <mxPoint x="-550" y="840" />
              <mxPoint x="-430" y="840" />
            </Array>
          </mxGeometry>
        </mxCell>
        <mxCell id="V-8IQIEskmgq7ARkN5S_-0" value="&lt;p style=&quot;margin: 4px 0px 0px; text-align: center;&quot;&gt;&lt;b&gt;User&lt;/b&gt;&lt;/p&gt;&lt;hr&gt;&lt;p style=&quot;margin:0px;margin-left:8px;&quot;&gt;- Email/id&lt;/p&gt;" style="verticalAlign=top;align=left;overflow=fill;fontSize=12;fontFamily=Helvetica;html=1;whiteSpace=wrap;rounded=0;" vertex="1" parent="WIyWlLk6GJQsqaUBKTNV-1">
          <mxGeometry x="-750" y="640" width="160" height="90" as="geometry" />
        </mxCell>
        <mxCell id="V-8IQIEskmgq7ARkN5S_-3" value="1" style="edgeLabel;resizable=0;html=1;align=right;verticalAlign=bottom;rounded=1;" connectable="0" vertex="1" parent="WIyWlLk6GJQsqaUBKTNV-1">
          <mxGeometry x="-629.9996123563396" y="689.9977890663188" as="geometry">
            <mxPoint x="51" y="-6" as="offset" />
          </mxGeometry>
        </mxCell>
        <mxCell id="V-8IQIEskmgq7ARkN5S_-6" value="&lt;span style=&quot;color: rgb(0, 0, 0); font-family: Helvetica; font-size: 11px; font-style: normal; font-variant-ligatures: normal; font-variant-caps: normal; font-weight: 400; letter-spacing: normal; orphans: 2; text-align: right; text-indent: 0px; text-transform: none; widows: 2; word-spacing: 0px; -webkit-text-stroke-width: 0px; background-color: rgb(255, 255, 255); text-decoration-thickness: initial; text-decoration-style: initial; text-decoration-color: initial; float: none; display: inline !important;&quot;&gt;1&lt;/span&gt;" style="text;whiteSpace=wrap;html=1;" vertex="1" parent="WIyWlLk6GJQsqaUBKTNV-1">
          <mxGeometry x="-587" y="680" width="40" height="40" as="geometry" />
        </mxCell>
        <mxCell id="V-8IQIEskmgq7ARkN5S_-7" value="&lt;span style=&quot;color: rgb(0, 0, 0); font-family: Helvetica; font-size: 11px; font-style: normal; font-variant-ligatures: normal; font-variant-caps: normal; font-weight: 400; letter-spacing: normal; orphans: 2; text-align: right; text-indent: 0px; text-transform: none; widows: 2; word-spacing: 0px; -webkit-text-stroke-width: 0px; background-color: rgb(255, 255, 255); text-decoration-thickness: initial; text-decoration-style: initial; text-decoration-color: initial; float: none; display: inline !important;&quot;&gt;1&lt;/span&gt;" style="text;whiteSpace=wrap;html=1;" vertex="1" parent="WIyWlLk6GJQsqaUBKTNV-1">
          <mxGeometry x="-430" y="545" width="40" height="40" as="geometry" />
        </mxCell>
        <mxCell id="V-8IQIEskmgq7ARkN5S_-8" value="&lt;span style=&quot;color: rgb(0, 0, 0); font-family: Helvetica; font-size: 11px; font-style: normal; font-variant-ligatures: normal; font-variant-caps: normal; font-weight: 400; letter-spacing: normal; orphans: 2; text-align: right; text-indent: 0px; text-transform: none; widows: 2; word-spacing: 0px; -webkit-text-stroke-width: 0px; background-color: rgb(255, 255, 255); text-decoration-thickness: initial; text-decoration-style: initial; text-decoration-color: initial; float: none; display: inline !important;&quot;&gt;1&lt;/span&gt;" style="text;whiteSpace=wrap;html=1;" vertex="1" parent="WIyWlLk6GJQsqaUBKTNV-1">
          <mxGeometry x="-430" y="775" width="40" height="40" as="geometry" />
        </mxCell>
        <mxCell id="V-8IQIEskmgq7ARkN5S_-9" style="edgeStyle=orthogonalEdgeStyle;rounded=0;orthogonalLoop=1;jettySize=auto;html=1;exitX=0.5;exitY=0;exitDx=0;exitDy=0;entryX=0.873;entryY=0.003;entryDx=0;entryDy=0;entryPerimeter=0;" edge="1" parent="WIyWlLk6GJQsqaUBKTNV-1" source="V-8IQIEskmgq7ARkN5S_-0" target="jSlZh_h7TQcM6uC7sidU-52">
          <mxGeometry relative="1" as="geometry">
            <Array as="points">
              <mxPoint x="-670" y="190" />
              <mxPoint x="730" y="190" />
            </Array>
          </mxGeometry>
        </mxCell>
        <mxCell id="V-8IQIEskmgq7ARkN5S_-10" value="&lt;span style=&quot;color: rgb(0, 0, 0); font-family: Helvetica; font-size: 11px; font-style: normal; font-variant-ligatures: normal; font-variant-caps: normal; font-weight: 400; letter-spacing: normal; orphans: 2; text-align: right; text-indent: 0px; text-transform: none; widows: 2; word-spacing: 0px; -webkit-text-stroke-width: 0px; background-color: rgb(255, 255, 255); text-decoration-thickness: initial; text-decoration-style: initial; text-decoration-color: initial; float: none; display: inline !important;&quot;&gt;1&lt;/span&gt;" style="text;whiteSpace=wrap;html=1;" vertex="1" parent="WIyWlLk6GJQsqaUBKTNV-1">
          <mxGeometry x="-660" y="615" width="40" height="40" as="geometry" />
        </mxCell>
        <mxCell id="V-8IQIEskmgq7ARkN5S_-11" value="&lt;span style=&quot;color: rgb(0, 0, 0); font-family: Helvetica; font-size: 11px; font-style: normal; font-variant-ligatures: normal; font-variant-caps: normal; font-weight: 400; letter-spacing: normal; orphans: 2; text-align: right; text-indent: 0px; text-transform: none; widows: 2; word-spacing: 0px; -webkit-text-stroke-width: 0px; background-color: rgb(255, 255, 255); text-decoration-thickness: initial; text-decoration-style: initial; text-decoration-color: initial; float: none; display: inline !important;&quot;&gt;1&lt;/span&gt;" style="text;whiteSpace=wrap;html=1;" vertex="1" parent="WIyWlLk6GJQsqaUBKTNV-1">
          <mxGeometry x="740" y="315" width="40" height="40" as="geometry" />
        </mxCell>
        <mxCell id="V-8IQIEskmgq7ARkN5S_-12" value="Login" style="edgeLabel;resizable=0;html=1;align=right;verticalAlign=bottom;rotation=0;rounded=1;" connectable="0" vertex="1" parent="WIyWlLk6GJQsqaUBKTNV-1">
          <mxGeometry x="20.00038764366036" y="189.99778906631877" as="geometry">
            <mxPoint x="51" y="-6" as="offset" />
          </mxGeometry>
        </mxCell>
        <mxCell id="V-8IQIEskmgq7ARkN5S_-13" value="Login" style="edgeLabel;resizable=0;html=1;align=right;verticalAlign=bottom;rotation=0;rounded=1;" connectable="0" vertex="1" parent="WIyWlLk6GJQsqaUBKTNV-1">
          <mxGeometry x="-519.9996123563396" y="544.9977890663188" as="geometry">
            <mxPoint x="51" y="-6" as="offset" />
          </mxGeometry>
        </mxCell>
        <mxCell id="V-8IQIEskmgq7ARkN5S_-14" value="Login" style="edgeLabel;resizable=0;html=1;align=right;verticalAlign=bottom;rotation=0;rounded=1;" connectable="0" vertex="1" parent="WIyWlLk6GJQsqaUBKTNV-1">
          <mxGeometry x="-519.9996123563396" y="869.9977890663188" as="geometry">
            <mxPoint x="51" y="-6" as="offset" />
          </mxGeometry>
        </mxCell>
      </root>
    </mxGraphModel>
  </diagram>
</mxfile>
